<svg width="48" height="48" xmlns="http://www.w3.org/2000/svg">
 <!-- Generator: Sketch 39.1 (31720) - http://www.bohemiancoding.com/sketch -->
 <title>logo</title>
 <desc>Created with Sketch.</desc>

 <g>
  <title>background</title>
  <rect fill="none" id="canvas_background" height="50" width="50" y="-1" x="-1"/>
 </g>
 <g>
  <title>Layer 1</title>
  <ellipse ry="22.950782" rx="22.950782" id="svg_2" cy="24.000001" cx="23.999999" stroke-width="0" stroke="#000" fill="#ffffff"/>
  <g fill-rule="evenodd" fill="none" id="Assets">
   <g stroke="null" fill="#FFFFFF" id="logo">
    <g stroke="null" id="group">
     <g stroke="null" id="symbol">
      <path stroke="#6b6b6b" fill="#ffffff" id="wave" d="m35.15575,11.1168c0.194736,-0.19381 0.194736,-0.50806 0,-0.70187c-0.194722,-0.193824 -0.510445,-0.193824 -0.705166,0l-4.487713,4.466702c-0.194722,0.193824 -0.194722,0.50806 0,0.701884c0.194736,0.19381 0.510445,0.19381 0.70518,0l4.487699,-4.466716z"/>
      <path stroke="#6b6b6b" fill="#ffffff" id="wave" d="m27.230094,10.069262c0.080509,-0.26213 -0.067703,-0.539576 -0.331067,-0.61972c-0.26335,-0.080144 -0.542115,0.06738 -0.622624,0.32951l-0.824695,2.684824c-0.080523,0.26213 0.067703,0.53959 0.331053,0.61972c0.263364,0.080144 0.542115,-0.06738 0.622638,-0.32951l0.824695,-2.684824z"/>
      <path stroke="#6b6b6b" fill="#ffffff" id="wave" d="m35.794616,19.252748c0.26335,-0.080144 0.411576,-0.357604 0.331067,-0.61972c-0.080523,-0.26213 -0.359287,-0.409654 -0.622638,-0.32951l-2.697447,0.820824c-0.26335,0.080144 -0.411576,0.357604 -0.331067,0.61972c0.080523,0.26213 0.359287,0.409654 0.622638,0.32951l2.697447,-0.820824z"/>
      <path stroke="#6b6b6b" fill="#ffffff" id="wave" d="m31.253591,9.696959c0.14183,-0.234948 0.065459,-0.539857 -0.170597,-0.681028c-0.236056,-0.141171 -0.542396,-0.06515 -0.684225,0.169798l-2.542348,4.211374c-0.14183,0.234948 -0.065459,0.539857 0.170597,0.681028c0.236056,0.141171 0.542396,0.06515 0.684225,-0.169798l2.542348,-4.211374z"/>
      <path stroke="#6b6b6b" fill="#ffffff" id="wave" d="m36.390731,15.149667c0.236056,-0.141171 0.312427,-0.44608 0.170597,-0.681028c-0.14183,-0.234948 -0.44817,-0.310968 -0.684225,-0.169798l-4.231179,2.53044c-0.236042,0.141171 -0.312427,0.44608 -0.170597,0.681028c0.141844,0.234948 0.448184,0.310968 0.684239,0.169798l4.231165,-2.53044z"/>
      <path stroke="#6b6b6b" fill="#ffffff" id="Path-8" d="m22.835962,34.092008c6.617714,0 11.468571,-4.526396 11.468571,-11.414922l0,-0.73305l-0.683819,0.272243c-0.052429,0.020871 -0.052429,0.020871 -0.095502,0.038024c-0.107957,0.042989 -0.107957,0.042989 -0.2699,0.107452c-0.398616,0.158703 -0.398616,0.158703 -0.963313,0.383524c-1.328715,0.529001 -1.328715,0.529001 -2.92318,1.163799c-1.59445,0.634798 -1.59445,0.634798 -2.923166,1.163799c-1.062981,0.423203 -1.062981,0.423203 -1.328715,0.529001l-0.500865,0.199406l0.239057,0.481341l1.52289,3.066314l0.173837,-0.635135l-1.522904,0.992599l0.666735,0.110454l-2.419622,-3.0956l-0.230389,-0.29474l-0.348361,0.138688l-4.035616,1.606695l0.537767,0.109865l-1.994525,-1.985212l0.110384,0.53527l5.983603,-14.889039l0.273519,-0.680621l-0.736486,0c-6.58983,0 -11.468585,5.012576 -11.468585,11.414922c0,6.229715 5.209584,11.414922 11.468585,11.414922zm0,-21.837245l-0.462981,-0.680621l-5.983603,14.889039l-0.122109,0.303843l0.232493,0.231413l1.994539,1.985198l0.232493,0.231413l0.305274,-0.121548l4.035616,-1.606695l-0.578737,-0.156052l2.419622,3.0956l0.282215,0.361069l0.384506,-0.250615l1.522904,-0.992599l0.369625,-0.240923l-0.195788,-0.394212l-1.522904,-3.066314l-0.261821,0.680733c0.265749,-0.105797 0.265749,-0.105797 1.328715,-0.529001c1.328715,-0.529001 1.328715,-0.529001 2.92318,-1.163799c1.59445,-0.634798 1.59445,-0.634798 2.923166,-1.163799c0.564711,-0.224821 0.564711,-0.224821 0.963327,-0.383524c0.161929,-0.064477 0.161929,-0.064477 0.269886,-0.107452c0.043088,-0.017154 0.043088,-0.017154 0.071111,-0.028318c0.024349,-0.009678 -0.659428,-0.470513 -0.659428,-0.470513c0,6.325498 -4.390485,10.422323 -10.471301,10.422323c-5.708218,0 -10.471315,-4.74081 -10.471315,-10.422323c0,-5.861087 4.439464,-10.422323 10.471315,-10.422323z"/>
      <path stroke="#6b6b6b" fill="#ffffff" id="Path-9" d="m17.809823,35.596637c0.102487,0.035051 0.220136,0.073959 0.351391,0.115756c0.373846,0.11908 0.78315,0.23802 1.215526,0.349077c0.805718,0.206952 1.597634,0.362541 2.344541,0.445715c0.390804,0.043522 0.763177,0.066328 1.11468,0.066328c0.351489,0 0.723863,-0.022806 1.114666,-0.066328c0.746907,-0.083174 1.538823,-0.238763 2.344541,-0.445715c0.43239,-0.111057 0.84168,-0.229997 1.215526,-0.349077c0.131254,-0.041797 0.248904,-0.080705 0.351391,-0.115756c0.062387,-0.021333 0.106457,-0.03686 0.130609,-0.045598c0.258806,-0.093679 0.392318,-0.378433 0.298205,-0.636032c-0.0941,-0.2576 -0.3802,-0.390481 -0.639006,-0.296816c-0.079849,0.028907 -0.232493,0.081098 -0.44514,0.148829c-0.35658,0.113568 -0.747833,0.227276 -1.160783,0.33334c-0.7635,0.19611 -1.510898,0.342947 -2.206232,0.420384c-0.355669,0.039609 -0.691421,0.060171 -1.003777,0.060171c-0.312371,0 -0.648123,-0.020562 -1.003792,-0.060171c-0.695334,-0.077437 -1.442732,-0.224274 -2.206232,-0.420384c-0.412951,-0.106064 -0.804203,-0.219772 -1.160783,-0.33334c-0.212647,-0.067731 -0.365291,-0.119921 -0.44514,-0.148829c-0.258806,-0.093665 -0.544906,0.039216 -0.639006,0.296816c-0.094114,0.2576 0.039399,0.542353 0.298205,0.636032c0.024153,0.008738 0.068222,0.024265 0.130609,0.045598z"/>
      <path stroke="#6b6b6b" fill="#ffffff" id="Path-9" d="m19.479213,38.618783c0.225017,0.061083 0.481537,0.121871 0.765786,0.178452c0.809617,0.161172 1.683304,0.257796 2.590962,0.257796c0.907658,0 1.781331,-0.096624 2.590948,-0.257796c0.284249,-0.05658 0.540769,-0.117369 0.765786,-0.178452c0.137692,-0.037379 0.236098,-0.067184 0.291374,-0.08553c0.26126,-0.08668 0.402459,-0.367745 0.315372,-0.627771c-0.087087,-0.26004 -0.36947,-0.400566 -0.630731,-0.313886c-0.038207,0.012665 -0.11901,0.037141 -0.238412,0.069554c-0.203516,0.055248 -0.437832,0.110777 -0.698967,0.162757c-0.748604,0.149025 -1.557815,0.23851 -2.395371,0.23851c-0.837571,0 -1.646781,-0.089485 -2.395385,-0.23851c-0.261134,-0.05198 -0.495451,-0.107509 -0.698967,-0.162757c-0.119402,-0.032414 -0.200206,-0.056889 -0.238412,-0.069554c-0.26126,-0.08668 -0.543644,0.053845 -0.630731,0.313886c-0.087087,0.260026 0.054112,0.541091 0.315372,0.627771c0.055276,0.018346 0.153682,0.048151 0.291374,0.08553z"/>
     </g>
    </g>
   </g>
  </g>
 </g>
</svg>