<?xml version="1.0" encoding="UTF-8" standalone="no"?>
<svg width="170px" height="30px" viewBox="0 0 170 30" version="1.1" xmlns="http://www.w3.org/2000/svg" xmlns:xlink="http://www.w3.org/1999/xlink">
    <!-- Generator: Sketch 39.1 (31720) - http://www.bohemiancoding.com/sketch -->
    <title>logo</title>
    <desc>Created with Sketch.</desc>
    <defs></defs>
    <g id="Assets" stroke="none" stroke-width="1" fill="none" fill-rule="evenodd">
        <g id="logo" fill="#FFFFFF">
            <g id="group" transform="translate(0.000000, 4.000000)">
                <g id="symbol" transform="translate(0.000000, 1.061538)">
                    <path d="M16.9603228,1.66559163 C17.0991578,1.52740611 17.0991578,1.30336312 16.9603228,1.1651776 C16.8214877,1.02699208 16.5963917,1.02699208 16.4575566,1.1651776 L13.2579724,4.34979299 C13.1191374,4.4879785 13.1191374,4.7120215 13.2579724,4.85020701 C13.3968075,4.98839253 13.6219035,4.98839253 13.7607386,4.85020701 L16.9603228,1.66559163 Z" id="wave"></path>
                    <path d="M11.3095878,0.918728895 C11.3669928,0.731844153 11.2613166,0.534025932 11.0735534,0.476889532 C10.8857902,0.419753133 10.6870422,0.524934946 10.6296372,0.711819689 L10.0416588,2.62601296 C9.98425388,2.8128977 10.0899301,3.01071592 10.2776933,3.06785232 C10.4654564,3.12498872 10.6642045,3.0198069 10.7216094,2.83292216 L11.3095878,0.918728895 Z" id="wave"></path>
                    <path d="M17.4158116,7.46624591 C17.6035748,7.40910951 17.709251,7.21129129 17.651846,7.02440655 C17.5944411,6.83752181 17.3956931,6.73233999 17.2079299,6.78947639 L15.2847392,7.374704 C15.0969761,7.4318404 14.9912999,7.62965862 15.0487048,7.81654337 C15.1061098,8.00342811 15.3048578,8.10860992 15.492621,8.05147352 L17.4158116,7.46624591 Z" id="wave"></path>
                    <path d="M14.1782078,0.653288601 C14.2793316,0.48577768 14.224876,0.268389722 14.0565777,0.167739006 C13.8882794,0.0670882908 13.6698696,0.121289196 13.5687458,0.288800117 L11.7561398,3.29136992 C11.655016,3.45888084 11.7094717,3.6762688 11.87777,3.77691951 C12.0460683,3.87757023 12.264478,3.82336932 12.3656018,3.6558584 L14.1782078,0.653288601 Z" id="wave"></path>
                    <path d="M17.8408196,4.54088753 C18.0091178,4.44023682 18.0635735,4.22284886 17.9624497,4.05533794 C17.8613259,3.88782702 17.6429161,3.83362611 17.4746178,3.93427683 L14.4579349,5.73840278 C14.2896366,5.83905349 14.235181,6.05644145 14.3363048,6.22395237 C14.4374286,6.39146329 14.6558383,6.4456642 14.8241366,6.34501348 L17.8408196,4.54088753 Z" id="wave"></path>
                    <path d="M8.17671518,18.0461538 C12.8949314,18.0461538 16.3534304,14.81898 16.3534304,9.90769231 L16.3534304,9.38504988 L15.8658881,9.5791544 C15.828513,9.59403451 15.828513,9.59403451 15.7977988,9.60626271 C15.7208283,9.63690688 15.7208283,9.63690688 15.6053725,9.68287314 C15.3211736,9.79602086 15.3211736,9.79602086 14.9185585,9.95631346 C13.9712289,10.3334725 13.9712289,10.3334725 12.8344334,10.7860634 C11.6976379,11.2386543 11.6976379,11.2386543 10.7503083,11.6158133 C9.99244464,11.9175406 9.99244464,11.9175406 9.80297872,11.9929724 L9.44587767,12.1351445 L9.61631503,12.478315 L10.7020935,14.664497 L10.8260293,14.2116696 L9.74025056,14.9193619 L10.2156063,14.9981095 L8.49049555,12.7910513 L8.32623824,12.5809051 L8.07786766,12.6797885 L5.20060747,13.8253082 L5.58402341,13.9036391 L4.16198599,12.4882545 L4.24068506,12.8698767 L8.50679733,2.25449209 L8.70181421,1.76923077 L8.17671518,1.76923077 C3.47838739,1.76923077 2.71130019e-10,5.34302611 0,9.90769231 C-2.63818971e-10,14.34927 3.71426052,18.0461538 8.17671518,18.0461538 Z M8.17671518,2.47692308 L7.84663303,1.99166176 L3.58052076,12.6070464 L3.4934588,12.823683 L3.65921983,12.9886686 L5.08125726,14.4040532 L5.24701829,14.5690387 L5.46467319,14.4823841 L8.34193338,13.3368643 L7.92930548,13.2256016 L9.65441622,15.4326598 L9.85563074,15.690088 L10.1297719,15.5114074 L11.2155507,14.803715 L11.4790786,14.631952 L11.3394866,14.3508876 L10.2537081,12.1647056 L10.0670444,12.6500482 C10.2565104,12.5746164 10.2565104,12.5746164 11.014374,12.2728891 C11.9617036,11.8957301 11.9617036,11.8957301 13.0984992,11.4431392 C14.2352947,10.9905483 14.2352947,10.9905483 15.1826243,10.6133893 C15.5852393,10.4530967 15.5852393,10.4530967 15.8694382,10.339949 C15.984894,10.2939827 15.984894,10.2939827 16.0618645,10.2633385 C16.0925787,10.2511103 16.0925787,10.2511103 16.1125615,10.2431546 C16.1299163,10.2362452 15.6424116,9.90769231 15.6424116,9.90769231 C15.6424116,14.4175585 12.5121372,17.3384615 8.17671518,17.3384615 C4.10694531,17.3384615 0.711018711,13.9584223 0.711018711,9.90769231 C0.711018711,5.72893419 3.8762124,2.47692308 8.17671518,2.47692308 Z" id="Path-8"></path>
                    <path d="M4.59325183,19.1189021 C4.66631652,19.1438866 4.75019812,19.1716274 4.8437836,19.2014347 C5.11032258,19.2863281 5.40213501,19.3711303 5.71041239,19.4503135 C6.28485537,19.5978633 6.84947124,19.7087901 7.38199015,19.7680938 C7.66062181,19.7991236 7.9261059,19.8153846 8.17671518,19.8153846 C8.42732445,19.8153846 8.69280854,19.7991236 8.97144021,19.7680938 C9.50395912,19.7087901 10.068575,19.5978633 10.643018,19.4503135 C10.9512953,19.3711303 11.2431078,19.2863281 11.5096468,19.2014347 C11.6032322,19.1716274 11.6871138,19.1438866 11.7601785,19.1189021 C11.8046642,19.1036902 11.8360777,19.0926224 11.8533016,19.0863884 C12.0378229,19.0196037 12.1330127,18.8165797 12.0659141,18.6329217 C11.9988154,18.4492637 11.7948372,18.3545191 11.6103159,18.4213039 C11.5533936,18.441906 11.44456,18.4791218 11.2929455,18.5274115 C11.0387188,18.6083834 10.7597721,18.6894467 10.46535,18.7650711 C9.92100348,18.9048904 9.38812884,19.0095811 8.89237901,19.0647902 C8.63879844,19.0930301 8.39941717,19.1076923 8.17671518,19.1076923 C7.95401318,19.1076923 7.71463192,19.0930301 7.46105135,19.0647902 C6.96530152,19.0095811 6.43242687,18.9048904 5.88808034,18.7650711 C5.59365826,18.6894467 5.31471153,18.6083834 5.06048485,18.5274115 C4.90887038,18.4791218 4.80003677,18.441906 4.74311448,18.4213039 C4.55859319,18.3545191 4.35461492,18.4492637 4.28751627,18.6329217 C4.22041762,18.8165797 4.31560747,19.0196037 4.50012877,19.0863884 C4.51735264,19.0926224 4.54876615,19.1036902 4.59325183,19.1189021 Z" id="Path-9"></path>
                    <path d="M5.78347333,21.2735895 C5.94389762,21.3171369 6.12679111,21.3604792 6.32944728,21.4008209 C6.90668231,21.5157278 7.52958512,21.5846154 8.17671518,21.5846154 C8.82384524,21.5846154 9.44674805,21.5157278 10.0239831,21.4008209 C10.2266392,21.3604792 10.4095327,21.3171369 10.569957,21.2735895 C10.6681299,21.2469403 10.738287,21.2256881 10.7777026,21.212611 C10.9639693,21.1508126 11.0646354,20.9504224 11.0025465,20.7650271 C10.9404575,20.5796318 10.7391255,20.4794367 10.5528587,20.5412351 C10.5256163,20.5502735 10.4680122,20.5677231 10.3828756,20.5908336 C10.2377841,20.6302189 10.070723,20.6698092 9.88454083,20.7068715 C9.35080913,20.8131184 8.77386786,20.8769231 8.17671518,20.8769231 C7.57956249,20.8769231 7.00262123,20.8131184 6.46888952,20.7068715 C6.28270733,20.6698092 6.1156463,20.6302189 5.97055473,20.5908336 C5.88541815,20.5677231 5.82781401,20.5502735 5.80057162,20.5412351 C5.61430487,20.4794367 5.41297282,20.5796318 5.3508839,20.7650271 C5.28879498,20.9504224 5.38946101,21.1508126 5.57572776,21.212611 C5.61514337,21.2256881 5.6853004,21.2469403 5.78347333,21.2735895 Z" id="Path-9"></path>
                </g>
            </g>
        </g>
    </g>
</svg>